<svg width="29" height="28" viewBox="0 0 29 28" fill="none" xmlns="http://www.w3.org/2000/svg">
<path fill-rule="evenodd" clip-rule="evenodd" d="M7.21875 6H21.2188C22.3233 6 23.2188 6.89543 23.2188 8V11H5.21875V8C5.21875 6.89543 6.11418 6 7.21875 6ZM5.21875 13V22C5.21875 23.1046 6.11418 24 7.21875 24H21.2188C22.3233 24 23.2188 23.1046 23.2188 22V13H5.21875Z" fill="url(#paint0_linear_50_646)"/>
<path d="M23.2188 11V11.5C23.4949 11.5 23.7188 11.2761 23.7188 11H23.2188ZM5.21875 11H4.71875C4.71875 11.2761 4.94261 11.5 5.21875 11.5V11ZM5.21875 13V12.5C4.94261 12.5 4.71875 12.7239 4.71875 13H5.21875ZM23.2188 13H23.7188C23.7188 12.7239 23.4949 12.5 23.2188 12.5V13ZM18.7188 4C18.7188 3.72386 18.4949 3.5 18.2188 3.5C17.9426 3.5 17.7188 3.72386 17.7188 4H18.7188ZM17.7188 8C17.7188 8.27614 17.9426 8.5 18.2188 8.5C18.4949 8.5 18.7188 8.27614 18.7188 8H17.7188ZM10.7188 4C10.7188 3.72386 10.4949 3.5 10.2188 3.5C9.94261 3.5 9.71875 3.72386 9.71875 4H10.7188ZM9.71875 8C9.71875 8.27614 9.94261 8.5 10.2188 8.5C10.4949 8.5 10.7188 8.27614 10.7188 8H9.71875ZM21.2188 5.5H7.21875V6.5H21.2188V5.5ZM23.7188 8C23.7188 6.61929 22.5995 5.5 21.2188 5.5V6.5C22.0472 6.5 22.7188 7.17157 22.7188 8H23.7188ZM23.7188 11V8H22.7188V11H23.7188ZM5.21875 11.5H23.2188V10.5H5.21875V11.5ZM4.71875 8V11H5.71875V8H4.71875ZM7.21875 5.5C5.83804 5.5 4.71875 6.61929 4.71875 8H5.71875C5.71875 7.17157 6.39032 6.5 7.21875 6.5V5.5ZM4.71875 13V22H5.71875V13H4.71875ZM4.71875 22C4.71875 23.3807 5.83804 24.5 7.21875 24.5V23.5C6.39032 23.5 5.71875 22.8284 5.71875 22H4.71875ZM7.21875 24.5H21.2188V23.5H7.21875V24.5ZM21.2188 24.5C22.5995 24.5 23.7188 23.3807 23.7188 22H22.7188C22.7188 22.8284 22.0472 23.5 21.2188 23.5V24.5ZM23.7188 22V13H22.7188V22H23.7188ZM23.2188 12.5H5.21875V13.5H23.2188V12.5ZM17.7188 4V8H18.7188V4H17.7188ZM9.71875 4V8H10.7188V4H9.71875Z" fill="url(#paint1_linear_50_646)"/>
<defs>
<linearGradient id="paint0_linear_50_646" x1="14.2188" y1="6" x2="14.2188" y2="24" gradientUnits="userSpaceOnUse">
<stop stop-color="#6979F8"/>
<stop offset="1" stop-color="#495DFA"/>
</linearGradient>
<linearGradient id="paint1_linear_50_646" x1="14.2188" y1="6" x2="14.2188" y2="24" gradientUnits="userSpaceOnUse">
<stop stop-color="#6979F8"/>
<stop offset="1" stop-color="#495DFA"/>
</linearGradient>
</defs>
</svg>
